<?xml version="1.0" encoding="UTF-8" standalone="no"?>
<!-- Created with Inkscape (http://www.inkscape.org/) -->
<svg
   xmlns:svg="http://www.w3.org/2000/svg"
   xmlns="http://www.w3.org/2000/svg"
   version="1.0"
   width="601.84985"
   height="461.30273"
   id="svg9751">
  <defs
     id="defs9753" />
  <g
     transform="translate(52.009658,0.232631)"
     id="layer1">
    <path
       d="M -52.009658,461.0701 L 549.84022,461.0701 L 549.84022,-0.232631 L -52.009658,-0.232631 L -52.009658,461.0701 z"
       id="path21"
       style="fill:#006db0;fill-opacity:1;fill-rule:nonzero;stroke:none" />
    <path
       d="M 133.9972,160.76402 L 157.61638,160.76402 L 157.61638,137.14483 L 133.9972,137.14483 L 133.9972,160.76402 z"
       id="path35"
       style="opacity:0.44999701;fill:#ffffff;fill-opacity:1;fill-rule:nonzero;stroke:none" />
    <path
       d="M 152.48644,224.18741 L 163.11618,242.59529 L 181.52406,231.96554 L 170.89431,213.55767 L 152.48644,224.18741 z"
       id="path37"
       style="opacity:0.44999701;fill:#ffffff;fill-opacity:1;fill-rule:nonzero;stroke:none" />
    <path
       d="M 211.8081,289.53407 L 228.37777,299.09862 L 237.94232,282.53264 L 221.37635,272.96809 L 211.8081,289.53407 z"
       id="path39"
       style="opacity:0.44999701;fill:#ffffff;fill-opacity:1;fill-rule:nonzero;stroke:none" />
    <path
       d="M 295.3888,315.83473 L 312.60573,315.83473 L 312.60573,298.6141 L 295.3888,298.6141 L 295.3888,315.83473 z"
       id="path41"
       style="opacity:0.44999701;fill:#ffffff;fill-opacity:1;fill-rule:nonzero;stroke:none" />
    <path
       d="M 350.57544,304.61691 L 363.99761,296.86837 L 356.25277,283.44989 L 342.83059,291.19843 L 350.57544,304.61691 z"
       id="path43"
       style="opacity:0.44999701;fill:#ffffff;fill-opacity:1;fill-rule:nonzero;stroke:none" />
    <path
       d="M 392.18086,267.41281 L 399.1564,255.33323 L 387.0768,248.36139 L 380.10127,260.44098 L 392.18086,267.41281 z"
       id="path45"
       style="opacity:0.44999701;fill:#ffffff;fill-opacity:1;fill-rule:nonzero;stroke:none" />
    <path
       d="M 409.20176,214.76711 L 409.20546,202.2141 L 396.65245,202.2141 L 396.65245,214.76711 L 409.20176,214.76711 z"
       id="path47"
       style="opacity:0.44999701;fill:#ffffff;fill-opacity:1;fill-rule:nonzero;stroke:none" />
    <path
       d="M 402.75882,180.93612 L 397.11107,171.14965 L 387.32831,176.8011 L 392.97605,186.58386 L 402.75882,180.93612 z"
       id="path49"
       style="opacity:0.44999701;fill:#ffffff;fill-opacity:1;fill-rule:nonzero;stroke:none" />
    <path
       d="M 380.30469,155.27161 L 371.49835,150.18606 L 366.41649,158.99239 L 375.21913,164.07795 L 380.30469,155.27161 z"
       id="path51"
       style="opacity:0.44999701;fill:#ffffff;fill-opacity:1;fill-rule:nonzero;stroke:none" />
    <path
       d="M 348.28971,144.5568 L 339.1394,144.5568 L 339.1394,153.70711 L 348.28971,153.71081 L 348.28971,144.5568 z"
       id="path53"
       style="opacity:0.44999701;fill:#ffffff;fill-opacity:1;fill-rule:nonzero;stroke:none" />
    <path
       d="M 325.48051,148.78429 L 318.34964,152.90082 L 322.46616,160.0317 L 329.60074,155.91517 L 325.48051,148.78429 z"
       id="path55"
       style="opacity:0.44999701;fill:#ffffff;fill-opacity:1;fill-rule:nonzero;stroke:none" />
    <path
       d="M 308.11934,163.76727 L 304.41335,170.18432 L 310.8304,173.89401 L 314.53639,167.47696 L 308.11934,163.76727 z"
       id="path57"
       style="opacity:0.44999701;fill:#ffffff;fill-opacity:1;fill-rule:nonzero;stroke:none" />
    <path
       d="M 300.75545,185.1895 L 300.75545,191.85805 L 307.424,191.85805 L 307.424,185.1895 L 300.75545,185.1895 z"
       id="path59"
       style="opacity:0.44999701;fill:#ffffff;fill-opacity:1;fill-rule:nonzero;stroke:none" />
    <path
       d="M 302.60844,197.33196 L 305.6117,202.52848 L 310.80821,199.52892 L 307.80866,194.32871 L 302.60844,197.33196 z"
       id="path61"
       style="opacity:0.44999701;fill:#ffffff;fill-opacity:1;fill-rule:nonzero;stroke:none" />
    <path
       d="M 310.18685,206.71158 L 314.86926,209.41155 L 317.56923,204.73284 L 312.89052,202.03287 L 310.18685,206.71158 z"
       id="path63"
       style="opacity:0.44999701;fill:#ffffff;fill-opacity:1;fill-rule:nonzero;stroke:none" />
    <path
       d="M 321.3307,210.8577 L 326.19064,210.854 L 326.19064,205.99406 L 321.3307,205.99406 L 321.3307,210.8577 z"
       id="path65"
       style="opacity:0.44999701;fill:#ffffff;fill-opacity:1;fill-rule:nonzero;stroke:none" />
    <path
       d="M 153.09301,99.078962 L 148.15909,122.17665 L 171.26047,127.11056 L 176.19069,104.01288 L 153.09301,99.078962 z"
       id="path79"
       style="opacity:0.44999701;fill:#ffffff;fill-opacity:1;fill-rule:nonzero;stroke:none" />
    <path
       d="M 152.99315,188.0633 L 159.54335,208.28718 L 179.76353,201.73698 L 173.21703,181.5131 L 152.99315,188.0633 z"
       id="path81"
       style="opacity:0.44999701;fill:#ffffff;fill-opacity:1;fill-rule:nonzero;stroke:none" />
    <path
       d="M 197.35771,264.36148 L 211.56029,277.17709 L 224.3759,262.97081 L 210.17332,250.1552 L 197.35771,264.36148 z"
       id="path83"
       style="opacity:0.44999701;fill:#ffffff;fill-opacity:1;fill-rule:nonzero;stroke:none" />
    <path
       d="M 273.59672,307.53879 L 290.43639,311.13752 L 294.03142,294.29785 L 277.19544,290.70282 L 273.59672,307.53879 z"
       id="path85"
       style="opacity:0.44999701;fill:#ffffff;fill-opacity:1;fill-rule:nonzero;stroke:none" />
    <path
       d="M 329.91512,308.09728 L 344.65769,303.3261 L 339.88282,288.58353 L 325.14024,293.35841 L 329.91512,308.09728 z"
       id="path87"
       style="opacity:0.44999701;fill:#ffffff;fill-opacity:1;fill-rule:nonzero;stroke:none" />
    <path
       d="M 378.36663,280.40226 L 387.71296,270.04991 L 377.35691,260.70727 L 368.01058,271.06332 L 378.36663,280.40226 z"
       id="path89"
       style="opacity:0.44999701;fill:#ffffff;fill-opacity:1;fill-rule:nonzero;stroke:none" />
    <path
       d="M 406.01728,232.47595 L 408.63958,220.20033 L 396.36026,217.57803 L 393.73796,229.85365 L 406.01728,232.47595 z"
       id="path91"
       style="opacity:0.44999701;fill:#ffffff;fill-opacity:1;fill-rule:nonzero;stroke:none" />
    <path
       d="M 406.77919,198.04579 L 403.29882,187.29769 L 392.55441,190.77806 L 396.03109,201.52616 L 406.77919,198.04579 z"
       id="path93"
       style="opacity:0.44999701;fill:#ffffff;fill-opacity:1;fill-rule:nonzero;stroke:none" />
    <path
       d="M 390.17992,168.25736 L 382.6311,161.44456 L 375.822,168.99708 L 383.36712,175.80988 L 390.17992,168.25736 z"
       id="path95"
       style="opacity:0.44999701;fill:#ffffff;fill-opacity:1;fill-rule:nonzero;stroke:none" />
    <path
       d="M 361.10902,151.09221 L 352.16213,149.18004 L 350.24996,158.13062 L 359.19685,160.04279 L 361.10902,151.09221 z"
       id="path97"
       style="opacity:0.44999701;fill:#ffffff;fill-opacity:1;fill-rule:nonzero;stroke:none" />
    <path
       d="M 337.92256,150.45975 L 330.08895,152.99698 L 332.62249,160.83059 L 340.4598,158.29706 L 337.92256,150.45975 z"
       id="path99"
       style="opacity:0.44999701;fill:#ffffff;fill-opacity:1;fill-rule:nonzero;stroke:none" />
    <path
       d="M 317.81334,161.48894 L 312.84983,166.98874 L 318.35333,171.95595 L 323.31684,166.45245 L 317.81334,161.48894 z"
       id="path101"
       style="opacity:0.44999701;fill:#ffffff;fill-opacity:1;fill-rule:nonzero;stroke:none" />
    <path
       d="M 306.1332,180.89544 L 304.74253,187.41975 L 311.26684,188.81041 L 312.65751,182.2898 L 306.1332,180.89544 z"
       id="path103"
       style="opacity:0.44999701;fill:#ffffff;fill-opacity:1;fill-rule:nonzero;stroke:none" />
    <path
       d="M 305.41197,193.15995 L 307.26127,198.87057 L 312.97189,197.02128 L 311.12629,191.31066 L 305.41197,193.15995 z"
       id="path105"
       style="opacity:0.44999701;fill:#ffffff;fill-opacity:1;fill-rule:nonzero;stroke:none" />
    <path
       d="M 310.86739,203.91545 L 314.87666,207.53637 L 318.49758,203.5234 L 314.48461,199.90618 L 310.86739,203.91545 z"
       id="path107"
       style="opacity:0.44999701;fill:#ffffff;fill-opacity:1;fill-rule:nonzero;stroke:none" />
    <path
       d="M 320.89796,210.29551 L 325.65435,211.30893 L 326.66776,206.55624 L 321.91507,205.54283 L 320.89796,210.29551 z"
       id="path109"
       style="opacity:0.44999701;fill:#ffffff;fill-opacity:1;fill-rule:nonzero;stroke:none" />
    <path
       d="M 179.71915,65.843446 L 170.06953,87.402518 L 191.6249,97.052135 L 201.27452,75.493063 L 179.71915,65.843446 z"
       id="path123"
       style="opacity:0.44999701;fill:#ffffff;fill-opacity:1;fill-rule:nonzero;stroke:none" />
    <path
       d="M 161.03018,152.84164 L 163.21235,173.98647 L 184.35718,171.808 L 182.17501,150.66317 L 161.03018,152.84164 z"
       id="path125"
       style="opacity:0.44999701;fill:#ffffff;fill-opacity:1;fill-rule:nonzero;stroke:none" />
    <path
       d="M 188.4811,236.72563 L 199.69522,252.22641 L 215.19601,241.01229 L 203.98189,225.51521 L 188.4811,236.72563 z"
       id="path127"
       style="opacity:0.44999701;fill:#ffffff;fill-opacity:1;fill-rule:nonzero;stroke:none" />
    <path
       d="M 254.02009,294.87483 L 269.73539,301.90954 L 276.7701,286.19424 L 261.0548,279.15953 L 254.02009,294.87483 z"
       id="path129"
       style="opacity:0.44999701;fill:#ffffff;fill-opacity:1;fill-rule:nonzero;stroke:none" />
    <path
       d="M 308.97741,307.18743 L 324.39313,305.59704 L 322.80274,290.18132 L 307.38702,291.77171 L 308.97741,307.18743 z"
       id="path131"
       style="opacity:0.44999701;fill:#ffffff;fill-opacity:1;fill-rule:nonzero;stroke:none" />
    <path
       d="M 362.14832,290.2257 L 373.44751,282.04813 L 365.27363,270.74894 L 353.97444,278.92652 L 362.14832,290.2257 z"
       id="path133"
       style="opacity:0.44999701;fill:#ffffff;fill-opacity:1;fill-rule:nonzero;stroke:none" />
    <path
       d="M 399.19708,249.12699 L 404.32702,237.66877 L 392.86879,232.54252 L 387.74255,244.00075 L 399.19708,249.12699 z"
       id="path135"
       style="opacity:0.44999701;fill:#ffffff;fill-opacity:1;fill-rule:nonzero;stroke:none" />
    <path
       d="M 407.13425,215.61408 L 405.97659,204.37407 L 394.74028,205.53543 L 395.89794,216.77544 L 407.13425,215.61408 z"
       id="path137"
       style="opacity:0.44999701;fill:#ffffff;fill-opacity:1;fill-rule:nonzero;stroke:none" />
    <path
       d="M 397.12587,183.01843 L 391.16374,174.77797 L 382.92699,180.74009 L 388.88911,188.98055 L 397.12587,183.01843 z"
       id="path139"
       style="opacity:0.44999701;fill:#ffffff;fill-opacity:1;fill-rule:nonzero;stroke:none" />
    <path
       d="M 372.28245,160.16115 L 363.93104,156.42188 L 360.19177,164.77329 L 368.53948,168.51256 L 372.28245,160.16115 z"
       id="path141"
       style="opacity:0.44999701;fill:#ffffff;fill-opacity:1;fill-rule:nonzero;stroke:none" />
    <path
       d="M 349.73586,154.69833 L 341.54718,155.54161 L 342.39416,163.73399 L 350.57913,162.89071 L 349.73586,154.69833 z"
       id="path143"
       style="opacity:0.44999701;fill:#ffffff;fill-opacity:1;fill-rule:nonzero;stroke:none" />
    <path
       d="M 327.76994,161.28182 L 321.76713,165.62396 L 326.10927,171.63047 L 332.11578,167.28463 L 327.76994,161.28182 z"
       id="path145"
       style="opacity:0.44999701;fill:#ffffff;fill-opacity:1;fill-rule:nonzero;stroke:none" />
    <path
       d="M 312.29505,177.82561 L 309.57288,183.91348 L 315.66076,186.63564 L 318.38292,180.54777 L 312.29505,177.82561 z"
       id="path147"
       style="opacity:0.44999701;fill:#ffffff;fill-opacity:1;fill-rule:nonzero;stroke:none" />
    <path
       d="M 309.02919,189.66479 L 309.64316,195.63431 L 315.61268,195.02034 L 314.99871,189.04712 L 309.02919,189.66479 z"
       id="path149"
       style="opacity:0.44999701;fill:#ffffff;fill-opacity:1;fill-rule:nonzero;stroke:none" />
    <path
       d="M 312.11382,201.32274 L 315.27981,205.69817 L 319.65524,202.53218 L 316.48555,198.15675 L 312.11382,201.32274 z"
       id="path151"
       style="opacity:0.44999701;fill:#ffffff;fill-opacity:1;fill-rule:nonzero;stroke:none" />
    <path
       d="M 320.59098,209.65566 L 325.02929,211.6455 L 327.01543,207.20719 L 322.57342,205.22105 L 320.59098,209.65566 z"
       id="path153"
       style="opacity:0.44999701;fill:#ffffff;fill-opacity:1;fill-rule:nonzero;stroke:none" />
    <path
       d="M 212.69946,38.902929 L 198.75948,57.969152 L 217.822,71.905433 L 231.76198,52.842908 L 212.69946,38.902929 z"
       id="path167"
       style="opacity:0.44999701;fill:#ffffff;fill-opacity:1;fill-rule:nonzero;stroke:none" />
    <path
       d="M 176.24987,120.07955 L 173.96414,141.21328 L 195.10157,143.49901 L 197.3836,122.36158 L 176.24987,120.07955 z"
       id="path169"
       style="opacity:0.44999701;fill:#ffffff;fill-opacity:1;fill-rule:nonzero;stroke:none" />
    <path
       d="M 185.57401,207.84335 L 193.30406,225.34507 L 210.80208,217.61502 L 203.07573,200.1133 L 185.57401,207.84335 z"
       id="path171"
       style="opacity:0.44999701;fill:#ffffff;fill-opacity:1;fill-rule:nonzero;stroke:none" />
    <path
       d="M 237.51699,278.40502 L 251.41628,288.56504 L 261.58,274.66575 L 247.68071,264.50572 L 237.51699,278.40502 z"
       id="path173"
       style="opacity:0.44999701;fill:#ffffff;fill-opacity:1;fill-rule:nonzero;stroke:none" />
    <path
       d="M 288.69435,301.92064 L 304.10267,303.5887 L 305.76704,288.18038 L 290.35872,286.51602 L 288.69435,301.92064 z"
       id="path175"
       style="opacity:0.44999701;fill:#ffffff;fill-opacity:1;fill-rule:nonzero;stroke:none" />
    <path
       d="M 344.23606,296.43933 L 356.99619,290.80268 L 351.35954,278.04626 L 338.59941,283.68291 L 344.23606,296.43933 z"
       id="path177"
       style="opacity:0.44999701;fill:#ffffff;fill-opacity:1;fill-rule:nonzero;stroke:none" />
    <path
       d="M 389.04815,263.98792 L 396.46012,253.85379 L 386.32599,246.44922 L 378.91772,256.57965 L 389.04815,263.98792 z"
       id="path179"
       style="opacity:0.44999701;fill:#ffffff;fill-opacity:1;fill-rule:nonzero;stroke:none" />
    <path
       d="M 403.81292,232.8717 L 405.02976,221.63908 L 393.79714,220.42595 L 392.5803,231.65856 L 403.81292,232.8717 z"
       id="path181"
       style="opacity:0.44999701;fill:#ffffff;fill-opacity:1;fill-rule:nonzero;stroke:none" />
    <path
       d="M 400.83186,198.90386 L 396.72272,189.60561 L 387.42447,193.71104 L 391.5299,203.01669 L 400.83186,198.90386 z"
       id="path183"
       style="opacity:0.44999701;fill:#ffffff;fill-opacity:1;fill-rule:nonzero;stroke:none" />
    <path
       d="M 381.31071,171.36047 L 373.92462,165.96054 L 368.52469,173.34662 L 375.91077,178.74656 L 381.31071,171.36047 z"
       id="path185"
       style="opacity:0.44999701;fill:#ffffff;fill-opacity:1;fill-rule:nonzero;stroke:none" />
    <path
       d="M 360.40628,161.31141 L 352.21761,160.42375 L 351.33365,168.61242 L 359.51862,169.50008 L 360.40628,161.31141 z"
       id="path187"
       style="opacity:0.44999701;fill:#ffffff;fill-opacity:1;fill-rule:nonzero;stroke:none" />
    <path
       d="M 337.54531,163.1607 L 330.7658,166.15286 L 333.76165,172.93237 L 340.54117,169.94022 L 337.54531,163.1607 z"
       id="path189"
       style="opacity:0.44999701;fill:#ffffff;fill-opacity:1;fill-rule:nonzero;stroke:none" />
    <path
       d="M 318.9599,176.10206 L 315.02091,181.48721 L 320.40605,185.42251 L 324.34135,180.04106 L 318.9599,176.10206 z"
       id="path191"
       style="opacity:0.44999701;fill:#ffffff;fill-opacity:1;fill-rule:nonzero;stroke:none" />
    <path
       d="M 313.28997,187.0018 L 312.64641,192.97133 L 318.61223,193.61488 L 319.25579,187.64906 L 313.28997,187.0018 z"
       id="path193"
       style="opacity:0.44999701;fill:#ffffff;fill-opacity:1;fill-rule:nonzero;stroke:none" />
    <path
       d="M 313.87064,199.04811 L 316.05281,203.98942 L 320.99413,201.80356 L 318.81196,196.86224 L 313.87064,199.04811 z"
       id="path195"
       style="opacity:0.44999701;fill:#ffffff;fill-opacity:1;fill-rule:nonzero;stroke:none" />
    <path
       d="M 320.42084,208.96772 L 324.34505,211.83783 L 327.21515,207.91362 L 323.29095,205.04352 L 320.42084,208.96772 z"
       id="path197"
       style="opacity:0.44999701;fill:#ffffff;fill-opacity:1;fill-rule:nonzero;stroke:none" />
    <path
       d="M 250.5767,19.440957 L 232.96033,35.174751 L 248.69412,52.791128 L 266.3105,37.053634 L 250.5767,19.440957 z"
       id="path211"
       style="opacity:0.44999701;fill:#ffffff;fill-opacity:1;fill-rule:nonzero;stroke:none" />
    <path
       d="M 197.97908,91.215763 L 191.32901,111.41006 L 211.51961,118.05642 L 218.16967,97.865825 L 197.97908,91.215763 z"
       id="path213"
       style="opacity:0.44999701;fill:#ffffff;fill-opacity:1;fill-rule:nonzero;stroke:none" />
    <path
       d="M 188.76219,178.99436 L 192.6642,197.72401 L 211.39386,193.822 L 207.48815,175.09235 L 188.76219,178.99436 z"
       id="path215"
       style="opacity:0.44999701;fill:#ffffff;fill-opacity:1;fill-rule:nonzero;stroke:none" />
    <path
       d="M 224.82343,258.84688 L 236.29275,271.68838 L 249.13425,260.21536 L 237.66493,247.37756 L 224.82343,258.84688 z"
       id="path217"
       style="opacity:0.44999701;fill:#ffffff;fill-opacity:1;fill-rule:nonzero;stroke:none" />
    <path
       d="M 269.9573,292.53362 L 284.67769,297.38247 L 289.52284,282.66579 L 274.80246,277.81694 L 269.9573,292.53362 z"
       id="path219"
       style="opacity:0.44999701;fill:#ffffff;fill-opacity:1;fill-rule:nonzero;stroke:none" />
    <path
       d="M 325.41764,298.77684 L 339.07283,295.92893 L 336.22491,282.27744 L 322.56972,285.12165 L 325.41764,298.77684 z"
       id="path221"
       style="opacity:0.44999701;fill:#ffffff;fill-opacity:1;fill-rule:nonzero;stroke:none" />
    <path
       d="M 376.02172,276.40038 L 385.38285,268.03788 L 377.02404,258.67675 L 367.65922,267.04296 L 376.02172,276.40038 z"
       id="path223"
       style="opacity:0.44999701;fill:#ffffff;fill-opacity:1;fill-rule:nonzero;stroke:none" />
    <path
       d="M 396.95943,249.05672 L 400.49529,238.32712 L 389.76198,234.79127 L 386.22613,245.52457 L 396.95943,249.05672 z"
       id="path225"
       style="opacity:0.44999701;fill:#ffffff;fill-opacity:1;fill-rule:nonzero;stroke:none" />
    <path
       d="M 401.13884,215.21464 L 399.06393,205.25804 L 389.11103,207.33295 L 391.18594,217.28955 L 401.13884,215.21464 z"
       id="path227"
       style="opacity:0.44999701;fill:#ffffff;fill-opacity:1;fill-rule:nonzero;stroke:none" />
    <path
       d="M 387.80173,184.20197 L 381.70645,177.37438 L 374.88256,183.47335 L 380.97783,190.29725 L 387.80173,184.20197 z"
       id="path229"
       style="opacity:0.44999701;fill:#ffffff;fill-opacity:1;fill-rule:nonzero;stroke:none" />
    <path
       d="M 369.45673,170.00679 L 361.63421,167.42887 L 359.06,175.25139 L 366.88251,177.82931 L 369.45673,170.00679 z"
       id="path231"
       style="opacity:0.44999701;fill:#ffffff;fill-opacity:1;fill-rule:nonzero;stroke:none" />
    <path
       d="M 346.71781,167.04052 L 339.46118,168.54955 L 340.9739,175.80618 L 348.22683,174.29346 L 346.71781,167.04052 z"
       id="path233"
       style="opacity:0.44999701;fill:#ffffff;fill-opacity:1;fill-rule:nonzero;stroke:none" />
    <path
       d="M 325.83558,175.81727 L 320.86098,180.25928 L 325.30298,185.23388 L 330.27758,180.79187 L 325.83558,175.81727 z"
       id="path235"
       style="opacity:0.44999701;fill:#ffffff;fill-opacity:1;fill-rule:nonzero;stroke:none" />
    <path
       d="M 318.01306,185.28936 L 316.13788,190.99258 L 321.8374,192.86777 L 323.71629,187.16824 L 318.01306,185.28936 z"
       id="path237"
       style="opacity:0.44999701;fill:#ffffff;fill-opacity:1;fill-rule:nonzero;stroke:none" />
    <path
       d="M 316.06391,197.18772 L 317.16979,202.4804 L 322.45877,201.37452 L 321.35289,196.08924 L 316.06391,197.18772 z"
       id="path239"
       style="opacity:0.44999701;fill:#ffffff;fill-opacity:1;fill-rule:nonzero;stroke:none" />
    <path
       d="M 320.39865,208.26129 L 323.63862,211.88591 L 327.26323,208.64964 L 324.02697,205.02503 L 320.39865,208.26129 z"
       id="path241"
       style="opacity:0.44999701;fill:#ffffff;fill-opacity:1;fill-rule:nonzero;stroke:none" />
    <path
       d="M 291.68651,8.3266981 L 271.17414,20.032731 L 282.88017,40.545102 L 303.39254,28.83907 L 291.68651,8.3266981 z"
       id="path255"
       style="opacity:0.44999701;fill:#ffffff;fill-opacity:1;fill-rule:nonzero;stroke:none" />
    <path
       d="M 225.25247,67.530003 L 214.53396,85.889795 L 232.89005,96.608305 L 243.61226,78.248512 L 225.25247,67.530003 z"
       id="path257"
       style="opacity:0.44999701;fill:#ffffff;fill-opacity:1;fill-rule:nonzero;stroke:none" />
    <path
       d="M 197.9051,151.44358 L 197.81264,170.57637 L 216.94174,170.66884 L 217.0379,151.53974 L 197.9051,151.44358 z"
       id="path259"
       style="opacity:0.44999701;fill:#ffffff;fill-opacity:1;fill-rule:nonzero;stroke:none" />
    <path
       d="M 216.49421,237.0696 L 225.02685,252.02299 L 239.98025,243.48665 L 231.4476,228.53325 L 216.49421,237.0696 z"
       id="path261"
       style="opacity:0.44999701;fill:#ffffff;fill-opacity:1;fill-rule:nonzero;stroke:none" />
    <path
       d="M 253.59475,279.44062 L 266.97624,287.25574 L 274.79136,273.87425 L 261.40987,266.05913 L 253.59475,279.44062 z"
       id="path263"
       style="opacity:0.44999701;fill:#ffffff;fill-opacity:1;fill-rule:nonzero;stroke:none" />
    <path
       d="M 306.52895,297.12727 L 320.47632,297.20124 L 320.5429,283.25387 L 306.59552,283.1836 L 306.52895,297.12727 z"
       id="path265"
       style="opacity:0.44999701;fill:#ffffff;fill-opacity:1;fill-rule:nonzero;stroke:none" />
    <path
       d="M 360.68738,285.82068 L 371.59081,279.59966 L 365.36979,268.69992 L 354.46635,274.92095 L 360.68738,285.82068 z"
       id="path267"
       style="opacity:0.44999701;fill:#ffffff;fill-opacity:1;fill-rule:nonzero;stroke:none" />
    <path
       d="M 386.87708,263.44793 L 392.57661,253.69475 L 382.81973,247.99892 L 377.1202,257.7558 L 386.87708,263.44793 z"
       id="path269"
       style="opacity:0.44999701;fill:#ffffff;fill-opacity:1;fill-rule:nonzero;stroke:none" />
    <path
       d="M 398.03203,231.22583 L 398.08381,221.05841 L 387.91638,221.01032 L 387.8646,231.17774 L 398.03203,231.22583 z"
       id="path271"
       style="opacity:0.44999701;fill:#ffffff;fill-opacity:1;fill-rule:nonzero;stroke:none" />
    <path
       d="M 391.47073,198.11236 L 386.93256,190.1641 L 378.98799,194.70227 L 383.52246,202.65053 L 391.47073,198.11236 z"
       id="path273"
       style="opacity:0.44999701;fill:#ffffff;fill-opacity:1;fill-rule:nonzero;stroke:none" />
    <path
       d="M 376.49514,180.39613 L 369.38276,176.24631 L 365.22924,183.3587 L 372.34163,187.51221 L 376.49514,180.39613 z"
       id="path275"
       style="opacity:0.44999701;fill:#ffffff;fill-opacity:1;fill-rule:nonzero;stroke:none" />
    <path
       d="M 354.87689,172.74745 L 347.46492,172.71046 L 347.42424,180.12243 L 354.83621,180.15942 L 354.87689,172.74745 z"
       id="path277"
       style="opacity:0.44999701;fill:#ffffff;fill-opacity:1;fill-rule:nonzero;stroke:none" />
    <path
       d="M 332.61879,176.96753 L 326.8268,180.27407 L 330.13334,186.06976 L 335.92533,182.76322 L 332.61879,176.96753 z"
       id="path279"
       style="opacity:0.44999701;fill:#ffffff;fill-opacity:1;fill-rule:nonzero;stroke:none" />
    <path
       d="M 322.99506,184.60142 L 319.96592,189.78314 L 325.15134,192.81229 L 328.17678,187.62687 L 322.99506,184.60142 z"
       id="path281"
       style="opacity:0.44999701;fill:#ffffff;fill-opacity:1;fill-rule:nonzero;stroke:none" />
    <path
       d="M 318.60484,195.83034 L 318.57525,201.23027 L 323.97889,201.25616 L 324.00478,195.85623 L 318.60484,195.83034 z"
       id="path283"
       style="opacity:0.44999701;fill:#ffffff;fill-opacity:1;fill-rule:nonzero;stroke:none" />
    <path
       d="M 320.5281,207.56226 L 322.93958,211.78605 L 327.15967,209.37457 L 324.74819,205.15448 L 320.5281,207.56226 z"
       id="path285"
       style="opacity:0.44999701;fill:#ffffff;fill-opacity:1;fill-rule:nonzero;stroke:none" />
    <path
       d="M 334.20918,6.0372719 L 311.70327,13.201438 L 318.86744,35.711047 L 341.37335,28.546881 L 334.20918,6.0372719 z"
       id="path299"
       style="opacity:0.44999701;fill:#ffffff;fill-opacity:1;fill-rule:nonzero;stroke:none" />
    <path
       d="M 256.8754,50.06157 L 242.56186,65.776872 L 258.27346,80.090409 L 272.5907,64.378805 L 256.8754,50.06157 z"
       id="path301"
       style="opacity:0.44999701;fill:#ffffff;fill-opacity:1;fill-rule:nonzero;stroke:none" />
    <path
       d="M 212.60329,126.41523 L 208.51635,145.1005 L 227.20532,149.19114 L 231.29226,130.50217 L 212.60329,126.41523 z"
       id="path303"
       style="opacity:0.44999701;fill:#ffffff;fill-opacity:1;fill-rule:nonzero;stroke:none" />
    <path
       d="M 212.89548,214.03109 L 218.11789,230.43803 L 234.52483,225.21192 L 229.30242,208.80498 L 212.89548,214.03109 z"
       id="path305"
       style="opacity:0.44999701;fill:#ffffff;fill-opacity:1;fill-rule:nonzero;stroke:none" />
    <path
       d="M 240.32791,263.21492 L 251.78244,273.65233 L 262.21986,262.2015 L 250.76533,251.76039 L 240.32791,263.21492 z"
       id="path307"
       style="opacity:0.44999701;fill:#ffffff;fill-opacity:1;fill-rule:nonzero;stroke:none" />
    <path
       d="M 288.39847,291.57199 L 302.02407,294.55305 L 305.00513,280.92746 L 291.37953,277.94639 L 288.39847,291.57199 z"
       id="path309"
       style="opacity:0.44999701;fill:#ffffff;fill-opacity:1;fill-rule:nonzero;stroke:none" />
    <path
       d="M 343.72935,291.82349 L 355.69058,288.01764 L 351.88104,276.05642 L 339.9198,279.86226 L 343.72935,291.82349 z"
       id="path311"
       style="opacity:0.44999701;fill:#ffffff;fill-opacity:1;fill-rule:nonzero;stroke:none" />
    <path
       d="M 374.00969,275.41656 L 381.62139,267.06515 L 373.26997,259.45715 L 365.65828,267.80856 L 374.00969,275.41656 z"
       id="path313"
       style="opacity:0.44999701;fill:#ffffff;fill-opacity:1;fill-rule:nonzero;stroke:none" />
    <path
       d="M 391.65196,246.2384 L 393.82673,236.30399 L 383.89232,234.12922 L 381.71755,244.06363 L 391.65196,246.2384 z"
       id="path315"
       style="opacity:0.44999701;fill:#ffffff;fill-opacity:1;fill-rule:nonzero;stroke:none" />
    <path
       d="M 392.15127,212.48138 L 389.37733,203.76381 L 380.65606,206.54145 L 383.43,215.25902 L 392.15127,212.48138 z"
       id="path317"
       style="opacity:0.44999701;fill:#ffffff;fill-opacity:1;fill-rule:nonzero;stroke:none" />
    <path
       d="M 381.20345,192.03188 L 375.11927,186.484 L 369.57139,192.57188 L 375.65926,198.11976 L 381.20345,192.03188 z"
       id="path319"
       style="opacity:0.44999701;fill:#ffffff;fill-opacity:1;fill-rule:nonzero;stroke:none" />
    <path
       d="M 361.66011,180.03736 L 354.42197,178.45067 L 352.83527,185.6925 L 360.07341,187.2755 L 361.66011,180.03736 z"
       id="path321"
       style="opacity:0.44999701;fill:#ffffff;fill-opacity:1;fill-rule:nonzero;stroke:none" />
    <path
       d="M 339.01735,179.51586 L 332.65947,181.53529 L 334.6826,187.89316 L 341.04047,185.87004 L 339.01735,179.51586 z"
       id="path323"
       style="opacity:0.44999701;fill:#ffffff;fill-opacity:1;fill-rule:nonzero;stroke:none" />
    <path
       d="M 328.00665,184.96758 L 323.96409,189.39849 L 328.4024,193.44844 L 332.44496,189.00644 L 328.00665,184.96758 z"
       id="path325"
       style="opacity:0.44999701;fill:#ffffff;fill-opacity:1;fill-rule:nonzero;stroke:none" />
    <path
       d="M 321.36768,195.02774 L 320.21372,200.30563 L 325.49161,201.45959 L 326.64557,196.1817 L 321.36768,195.02774 z"
       id="path327"
       style="opacity:0.44999701;fill:#ffffff;fill-opacity:1;fill-rule:nonzero;stroke:none" />
    <path
       d="M 320.7981,206.90391 L 322.27384,211.53454 L 326.90817,210.0625 L 325.43243,205.42817 L 320.7981,206.90391 z"
       id="path329"
       style="opacity:0.44999701;fill:#ffffff;fill-opacity:1;fill-rule:nonzero;stroke:none" />
    <path
       d="M 376.27323,12.687334 L 352.7687,14.991554 L 355.07292,38.499782 L 378.57745,36.191863 L 376.27323,12.687334 z"
       id="path343"
       style="opacity:0.44999701;fill:#ffffff;fill-opacity:1;fill-rule:nonzero;stroke:none" />
    <path
       d="M 291.4498,39.587167 L 274.1663,51.958946 L 286.54177,69.242449 L 303.82528,56.870671 L 291.4498,39.587167 z"
       id="path345"
       style="opacity:0.44999701;fill:#ffffff;fill-opacity:1;fill-rule:nonzero;stroke:none" />
    <path
       d="M 232.20581,105.0078 L 224.30563,122.42815 L 241.72598,130.33203 L 249.62986,112.90798 L 232.20581,105.0078 z"
       id="path347"
       style="opacity:0.44999701;fill:#ffffff;fill-opacity:1;fill-rule:nonzero;stroke:none" />
    <path
       d="M 214.18999,190.75217 L 215.86915,207.88773 L 233.00471,206.20857 L 231.32555,189.07301 L 214.18999,190.75217 z"
       id="path349"
       style="opacity:0.44999701;fill:#ffffff;fill-opacity:1;fill-rule:nonzero;stroke:none" />
    <path
       d="M 230.74117,244.58143 L 239.76573,257.18252 L 252.36312,248.16536 L 243.34226,235.56427 L 230.74117,244.58143 z"
       id="path351"
       style="opacity:0.44999701;fill:#ffffff;fill-opacity:1;fill-rule:nonzero;stroke:none" />
    <path
       d="M 271.83249,282.35511 L 284.53344,288.11751 L 290.29214,275.41286 L 277.59119,269.65416 L 271.83249,282.35511 z"
       id="path353"
       style="opacity:0.44999701;fill:#ffffff;fill-opacity:1;fill-rule:nonzero;stroke:none" />
    <path
       d="M 325.88736,294.161 L 338.38119,292.93677 L 337.15326,280.44294 L 324.65943,281.66717 L 325.88736,294.161 z"
       id="path355"
       style="opacity:0.44999701;fill:#ffffff;fill-opacity:1;fill-rule:nonzero;stroke:none" />
    <path
       d="M 358.92685,284.44111 L 368.11414,277.86133 L 361.53805,268.67773 L 352.35076,275.25752 L 358.92685,284.44111 z"
       id="path357"
       style="opacity:0.44999701;fill:#ffffff;fill-opacity:1;fill-rule:nonzero;stroke:none" />
    <path
       d="M 382.27604,259.5866 L 386.47393,250.32904 L 377.21637,246.13114 L 373.01477,255.3887 L 382.27604,259.5866 z"
       id="path359"
       style="opacity:0.44999701;fill:#ffffff;fill-opacity:1;fill-rule:nonzero;stroke:none" />
    <path
       d="M 389.81376,226.68396 L 388.9224,217.57434 L 379.81278,218.4657 L 380.70414,227.57532 L 389.81376,226.68396 z"
       id="path361"
       style="opacity:0.44999701;fill:#ffffff;fill-opacity:1;fill-rule:nonzero;stroke:none" />
    <path
       d="M 383.38191,204.39627 L 378.58854,197.69812 L 371.8904,202.49149 L 376.68377,209.18964 L 383.38191,204.39627 z"
       id="path363"
       style="opacity:0.44999701;fill:#ffffff;fill-opacity:1;fill-rule:nonzero;stroke:none" />
    <path
       d="M 366.77525,188.5811 L 360.02533,185.51867 L 356.9629,192.2649 L 363.70912,195.32733 L 366.77525,188.5811 z"
       id="path365"
       style="opacity:0.44999701;fill:#ffffff;fill-opacity:1;fill-rule:nonzero;stroke:none" />
    <path
       d="M 344.73906,183.3402 L 338.1001,183.99115 L 338.75105,190.62642 L 345.39001,189.97917 L 344.73906,183.3402 z"
       id="path367"
       style="opacity:0.44999701;fill:#ffffff;fill-opacity:1;fill-rule:nonzero;stroke:none" />
    <path
       d="M 332.83331,186.37304 L 327.95117,189.86451 L 331.44634,194.74665 L 336.32847,191.25148 L 332.83331,186.37304 z"
       id="path369"
       style="opacity:0.44999701;fill:#ffffff;fill-opacity:1;fill-rule:nonzero;stroke:none" />
    <path
       d="M 324.23779,194.82802 L 322.00754,199.74714 L 326.92666,201.97739 L 329.15691,197.05827 L 324.23779,194.82802 z"
       id="path371"
       style="opacity:0.44999701;fill:#ffffff;fill-opacity:1;fill-rule:nonzero;stroke:none" />
    <path
       d="M 321.20125,206.32323 L 321.67467,211.16098 L 326.51612,210.68756 L 326.039,205.84981 L 321.20125,206.32323 z"
       id="path373"
       style="opacity:0.44999701;fill:#ffffff;fill-opacity:1;fill-rule:nonzero;stroke:none" />
    <path
       d="M 416.02196,27.9736 L 392.55441,25.321712 L 389.89883,48.789255 L 413.36637,51.444842 L 416.02196,27.9736 z"
       id="path387"
       style="opacity:0.44999701;fill:#ffffff;fill-opacity:1;fill-rule:nonzero;stroke:none" />
    <path
       d="M 327.45186,36.565421 L 307.964,45.05738 L 316.45596,64.545242 L 335.94382,56.049584 L 327.45186,36.565421 z"
       id="path389"
       style="opacity:0.44999701;fill:#ffffff;fill-opacity:1;fill-rule:nonzero;stroke:none" />
    <path
       d="M 255.84719,88.164427 L 244.48143,103.55055 L 259.86756,114.92002 L 271.23702,99.533888 L 255.84719,88.164427 z"
       id="path391"
       style="opacity:0.44999701;fill:#ffffff;fill-opacity:1;fill-rule:nonzero;stroke:none" />
    <path
       d="M 220.31855,168.25366 L 218.38049,185.36703 L 235.49016,187.30139 L 237.42822,170.18802 L 220.31855,168.25366 z"
       id="path393"
       style="opacity:0.44999701;fill:#ffffff;fill-opacity:1;fill-rule:nonzero;stroke:none" />
    <path
       d="M 225.25986,224.35755 L 231.4513,238.56383 L 245.65758,232.37239 L 239.46614,218.16611 L 225.25986,224.35755 z"
       id="path395"
       style="opacity:0.44999701;fill:#ffffff;fill-opacity:1;fill-rule:nonzero;stroke:none" />
    <path
       d="M 257.55224,269.87607 L 268.77006,278.16461 L 277.05859,266.94679 L 265.84078,258.66195 L 257.55224,269.87607 z"
       id="path397"
       style="opacity:0.44999701;fill:#ffffff;fill-opacity:1;fill-rule:nonzero;stroke:none" />
    <path
       d="M 307.9529,292.71115 L 320.42454,294.12401 L 321.83371,281.65238 L 309.36207,280.23952 L 307.9529,292.71115 z"
       id="path399"
       style="opacity:0.44999701;fill:#ffffff;fill-opacity:1;fill-rule:nonzero;stroke:none" />
    <path
       d="M 342.2943,290.11105 L 352.65034,285.59877 L 348.13807,275.23903 L 337.77832,279.755 L 342.2943,290.11105 z"
       id="path401"
       style="opacity:0.44999701;fill:#ffffff;fill-opacity:1;fill-rule:nonzero;stroke:none" />
    <path
       d="M 370.3148,270.68237 L 376.3583,262.50479 L 368.18072,256.46129 L 362.13722,264.63887 L 370.3148,270.68237 z"
       id="path403"
       style="opacity:0.44999701;fill:#ffffff;fill-opacity:1;fill-rule:nonzero;stroke:none" />
    <path
       d="M 384.56176,240.07655 L 385.59367,230.98542 L 376.49884,229.95351 L 375.47063,239.04834 L 384.56176,240.07655 z"
       id="path405"
       style="opacity:0.44999701;fill:#ffffff;fill-opacity:1;fill-rule:nonzero;stroke:none" />
    <path
       d="M 382.92699,216.93818 L 379.63894,209.38936 L 372.09012,212.67741 L 375.37817,220.22992 L 382.92699,216.93818 z"
       id="path407"
       style="opacity:0.44999701;fill:#ffffff;fill-opacity:1;fill-rule:nonzero;stroke:none" />
    <path
       d="M 369.98933,198.00141 L 364.0272,193.59639 L 359.62218,199.55851 L 365.58431,203.96353 L 369.98933,198.00141 z"
       id="path409"
       style="opacity:0.44999701;fill:#ffffff;fill-opacity:1;fill-rule:nonzero;stroke:none" />
    <path
       d="M 349.53243,188.27782 L 342.90456,187.527 L 342.15745,194.15487 L 348.78532,194.90569 L 349.53243,188.27782 z"
       id="path411"
       style="opacity:0.44999701;fill:#ffffff;fill-opacity:1;fill-rule:nonzero;stroke:none" />
    <path
       d="M 337.26052,188.75494 L 331.75702,191.15532 L 334.1537,196.65512 L 339.6572,194.25474 L 337.26052,188.75494 z"
       id="path413"
       style="opacity:0.44999701;fill:#ffffff;fill-opacity:1;fill-rule:nonzero;stroke:none" />
    <path
       d="M 327.0857,195.23116 L 323.87902,199.57331 L 328.22487,202.78368 L 331.43154,198.43784 L 327.0857,195.23116 z"
       id="path415"
       style="opacity:0.44999701;fill:#ffffff;fill-opacity:1;fill-rule:nonzero;stroke:none" />
    <path
       d="M 321.71535,205.83872 L 321.17166,210.66537 L 326.00201,211.21276 L 326.54571,206.38241 L 321.71535,205.83872 z"
       id="path417"
       style="opacity:0.44999701;fill:#ffffff;fill-opacity:1;fill-rule:nonzero;stroke:none" />
    <path
       d="M 451.69485,51.230324 L 429.29989,43.729586 L 421.79916,66.124539 L 444.19781,73.625276 L 451.69485,51.230324 z"
       id="path431"
       style="opacity:0.44999701;fill:#ffffff;fill-opacity:1;fill-rule:nonzero;stroke:none" />
    <path
       d="M 363.28379,41.12578 L 342.45334,45.360664 L 346.68822,66.191114 L 367.51867,61.95623 L 363.28379,41.12578 z"
       id="path433"
       style="opacity:0.44999701;fill:#ffffff;fill-opacity:1;fill-rule:nonzero;stroke:none" />
    <path
       d="M 282.48442,76.632229 L 268.15609,89.303593 L 280.83115,103.63562 L 295.15949,90.964259 L 282.48442,76.632229 z"
       id="path435"
       style="opacity:0.44999701;fill:#ffffff;fill-opacity:1;fill-rule:nonzero;stroke:none" />
    <path
       d="M 231.00747,147.53417 L 225.54096,163.86344 L 241.87022,169.32995 L 247.33674,153.00068 L 231.00747,147.53417 z"
       id="path437"
       style="opacity:0.44999701;fill:#ffffff;fill-opacity:1;fill-rule:nonzero;stroke:none" />
    <path
       d="M 224.1244,203.43093 L 227.20902,218.61734 L 242.39542,215.53272 L 239.3108,200.34631 L 224.1244,203.43093 z"
       id="path439"
       style="opacity:0.44999701;fill:#ffffff;fill-opacity:1;fill-rule:nonzero;stroke:none" />
    <path
       d="M 246.19757,254.69337 L 255.43665,265.14188 L 265.88516,255.90281 L 256.64239,245.4543 L 246.19757,254.69337 z"
       id="path441"
       style="opacity:0.44999701;fill:#ffffff;fill-opacity:1;fill-rule:nonzero;stroke:none" />
    <path
       d="M 290.71378,287.55532 L 302.61954,291.5387 L 306.60292,279.63665 L 294.70086,275.64957 L 290.71378,287.55532 z"
       id="path443"
       style="opacity:0.44999701;fill:#ffffff;fill-opacity:1;fill-rule:nonzero;stroke:none" />
    <path
       d="M 324.84066,292.17856 L 335.91423,289.93351 L 333.66179,278.85995 L 322.59192,281.10869 L 324.84066,292.17856 z"
       id="path445"
       style="opacity:0.44999701;fill:#ffffff;fill-opacity:1;fill-rule:nonzero;stroke:none" />
    <path
       d="M 356.30455,279.03378 L 363.91994,272.29865 L 357.18481,264.68326 L 349.56572,271.41839 L 356.30455,279.03378 z"
       id="path447"
       style="opacity:0.44999701;fill:#ffffff;fill-opacity:1;fill-rule:nonzero;stroke:none" />
    <path
       d="M 376.62829,252.08217 L 379.53538,243.40528 L 370.85849,240.49819 L 367.94771,249.17877 L 376.62829,252.08217 z"
       id="path449"
       style="opacity:0.44999701;fill:#ffffff;fill-opacity:1;fill-rule:nonzero;stroke:none" />
    <path
       d="M 379.86086,229.11023 L 378.22608,221.03991 L 370.15206,222.68209 L 371.79054,230.75241 L 379.86086,229.11023 z"
       id="path451"
       style="opacity:0.44999701;fill:#ffffff;fill-opacity:1;fill-rule:nonzero;stroke:none" />
    <path
       d="M 371.16918,207.88773 L 366.25745,202.33615 L 360.70587,207.24788 L 365.6139,212.79946 L 371.16918,207.88773 z"
       id="path453"
       style="opacity:0.44999701;fill:#ffffff;fill-opacity:1;fill-rule:nonzero;stroke:none" />
    <path
       d="M 353.19404,194.10679 L 346.86945,191.9912 L 344.75016,198.31579 L 351.07475,200.43138 L 353.19404,194.10679 z"
       id="path455"
       style="opacity:0.44999701;fill:#ffffff;fill-opacity:1;fill-rule:nonzero;stroke:none" />
    <path
       d="M 341.08856,192.00969 L 335.2078,193.20434 L 336.40244,199.08879 L 342.2832,197.89045 L 341.08856,192.00969 z"
       id="path457"
       style="opacity:0.44999701;fill:#ffffff;fill-opacity:1;fill-rule:nonzero;stroke:none" />
    <path
       d="M 329.78937,196.21499 L 325.74311,199.79522 L 329.31965,203.84148 L 333.3659,200.26124 L 329.78937,196.21499 z"
       id="path459"
       style="opacity:0.44999701;fill:#ffffff;fill-opacity:1;fill-rule:nonzero;stroke:none" />
    <path
       d="M 322.32192,205.46886 L 320.77961,210.0773 L 325.38805,211.61961 L 326.93036,207.01117 L 322.32192,205.46886 z"
       id="path461"
       style="opacity:0.44999701;fill:#ffffff;fill-opacity:1;fill-rule:nonzero;stroke:none" />
    <path
       d="M 481.73108,81.418202 L 461.39254,69.408886 L 449.38323,89.743725 L 469.71807,101.75674 L 481.73108,81.418202 z"
       id="path475"
       style="opacity:0.44999701;fill:#ffffff;fill-opacity:1;fill-rule:nonzero;stroke:none" />
    <path
       d="M 397.38107,53.072221 L 376.12528,52.861401 L 375.91446,74.117189 L 397.17025,74.331707 L 397.38107,53.072221 z"
       id="path477"
       style="opacity:0.44999701;fill:#ffffff;fill-opacity:1;fill-rule:nonzero;stroke:none" />
    <path
       d="M 310.94506,70.91791 L 294.28292,80.319721 L 303.68473,96.981862 L 320.34317,87.58005 L 310.94506,70.91791 z"
       id="path479"
       style="opacity:0.44999701;fill:#ffffff;fill-opacity:1;fill-rule:nonzero;stroke:none" />
    <path
       d="M 245.79443,129.50725 L 237.03987,144.33119 L 251.86381,153.08575 L 260.62207,138.26181 L 245.79443,129.50725 z"
       id="path481"
       style="opacity:0.44999701;fill:#ffffff;fill-opacity:1;fill-rule:nonzero;stroke:none" />
    <path
       d="M 227.38655,182.72994 L 227.23121,198.22702 L 242.7283,198.38236 L 242.87994,182.88528 L 227.38655,182.72994 z"
       id="path483"
       style="opacity:0.44999701;fill:#ffffff;fill-opacity:1;fill-rule:nonzero;stroke:none" />
    <path
       d="M 238.2641,237.47274 L 245.11389,249.61891 L 257.26005,242.76542 L 250.40657,230.61556 L 238.2641,237.47274 z"
       id="path485"
       style="opacity:0.44999701;fill:#ffffff;fill-opacity:1;fill-rule:nonzero;stroke:none" />
    <path
       d="M 274.9356,278.90433 L 285.74288,285.29179 L 292.12664,274.48082 L 281.31937,268.09705 L 274.9356,278.90433 z"
       id="path487"
       style="opacity:0.44999701;fill:#ffffff;fill-opacity:1;fill-rule:nonzero;stroke:none" />
    <path
       d="M 307.33894,290.55858 L 318.63812,290.66953 L 318.74908,279.37405 L 307.45359,279.26309 L 307.33894,290.55858 z"
       id="path489"
       style="opacity:0.44999701;fill:#ffffff;fill-opacity:1;fill-rule:nonzero;stroke:none" />
    <path
       d="M 340.85555,284.27837 L 349.71366,279.28158 L 344.71687,270.42347 L 335.85875,275.42026 L 340.85555,284.27837 z"
       id="path491"
       style="opacity:0.44999701;fill:#ffffff;fill-opacity:1;fill-rule:nonzero;stroke:none" />
    <path
       d="M 366.36471,262.16082 L 371.01753,254.28283 L 363.13954,249.63 L 358.48672,257.5043 L 366.36471,262.16082 z"
       id="path493"
       style="opacity:0.44999701;fill:#ffffff;fill-opacity:1;fill-rule:nonzero;stroke:none" />
    <path
       d="M 374.32407,240.37613 L 374.40914,232.13938 L 366.17238,232.05801 L 366.08732,240.29107 L 374.32407,240.37613 z"
       id="path495"
       style="opacity:0.44999701;fill:#ffffff;fill-opacity:1;fill-rule:nonzero;stroke:none" />
    <path
       d="M 370.24823,217.80735 L 366.60882,211.34961 L 360.15478,214.98902 L 363.79419,221.44306 L 370.24823,217.80735 z"
       id="path497"
       style="opacity:0.44999701;fill:#ffffff;fill-opacity:1;fill-rule:nonzero;stroke:none" />
    <path
       d="M 355.55743,200.56823 L 349.81353,197.17662 L 346.42192,202.92053 L 352.16583,206.31213 L 355.55743,200.56823 z"
       id="path499"
       style="opacity:0.44999701;fill:#ffffff;fill-opacity:1;fill-rule:nonzero;stroke:none" />
    <path
       d="M 344.15469,195.98937 L 338.15188,195.9339 L 338.0927,201.93301 L 344.09551,201.99588 L 344.15469,195.98937 z"
       id="path501"
       style="opacity:0.44999701;fill:#ffffff;fill-opacity:1;fill-rule:nonzero;stroke:none" />
    <path
       d="M 332.22304,197.7462 L 327.52213,200.40179 L 330.17772,205.10639 L 334.87863,202.44711 L 332.22304,197.7462 z"
       id="path503"
       style="opacity:0.44999701;fill:#ffffff;fill-opacity:1;fill-rule:nonzero;stroke:none" />
    <path
       d="M 322.99136,205.23215 L 320.51701,209.41895 L 324.70381,211.88961 L 327.17447,207.7028 L 322.99136,205.23215 z"
       id="path505"
       style="opacity:0.44999701;fill:#ffffff;fill-opacity:1;fill-rule:nonzero;stroke:none" />
    <path
       d="M 504.79178,117.22054 L 487.41211,101.22414 L 471.41942,118.60381 L 488.79908,134.6002 L 504.79178,117.22054 z"
       id="path519"
       style="opacity:0.44999701;fill:#ffffff;fill-opacity:1;fill-rule:nonzero;stroke:none" />
    <path
       d="M 428.2273,71.883241 L 407.48192,67.234116 L 402.83649,87.975799 L 423.58187,92.624925 L 428.2273,71.883241 z"
       id="path521"
       style="opacity:0.44999701;fill:#ffffff;fill-opacity:1;fill-rule:nonzero;stroke:none" />
    <path
       d="M 339.96788,71.276673 L 321.71165,76.990992 L 327.42597,95.247224 L 345.6822,89.536604 L 339.96788,71.276673 z"
       id="path523"
       style="opacity:0.44999701;fill:#ffffff;fill-opacity:1;fill-rule:nonzero;stroke:none" />
    <path
       d="M 264.01737,114.9607 L 252.35572,127.63206 L 265.02709,139.29001 L 276.68504,126.62235 L 264.01737,114.9607 z"
       id="path525"
       style="opacity:0.44999701;fill:#ffffff;fill-opacity:1;fill-rule:nonzero;stroke:none" />
    <path
       d="M 234.89839,163.1681 L 231.51048,178.28793 L 246.63031,181.67954 L 250.01821,166.55601 L 234.89839,163.1681 z"
       id="path527"
       style="opacity:0.44999701;fill:#ffffff;fill-opacity:1;fill-rule:nonzero;stroke:none" />
    <path
       d="M 234.10319,218.9761 L 238.2678,232.28732 L 251.57532,228.12271 L 247.41071,214.80779 L 234.10319,218.9761 z"
       id="path529"
       style="opacity:0.44999701;fill:#ffffff;fill-opacity:1;fill-rule:nonzero;stroke:none" />
    <path
       d="M 261.31001,267.15022 L 270.54538,275.65697 L 279.04474,266.41789 L 269.80936,257.91484 L 261.31001,267.15022 z"
       id="path531"
       style="opacity:0.44999701;fill:#ffffff;fill-opacity:1;fill-rule:nonzero;stroke:none" />
    <path
       d="M 290.56954,285.32137 L 301.59133,287.78833 L 304.06199,276.76654 L 293.0365,274.29589 L 290.56954,285.32137 z"
       id="path533"
       style="opacity:0.44999701;fill:#ffffff;fill-opacity:1;fill-rule:nonzero;stroke:none" />
    <path
       d="M 324.65573,286.17575 L 334.36082,283.14291 L 331.32428,273.43782 L 321.61919,276.47066 L 324.65573,286.17575 z"
       id="path535"
       style="opacity:0.44999701;fill:#ffffff;fill-opacity:1;fill-rule:nonzero;stroke:none" />
    <path
       d="M 354.21855,269.87607 L 360.41738,263.14464 L 353.68595,256.94581 L 347.48342,263.68094 L 354.21855,269.87607 z"
       id="path537"
       style="opacity:0.44999701;fill:#ffffff;fill-opacity:1;fill-rule:nonzero;stroke:none" />
    <path
       d="M 366.55704,250.23287 L 368.35825,242.19954 L 360.32122,240.39833 L 358.52,248.43166 L 366.55704,250.23287 z"
       id="path539"
       style="opacity:0.44999701;fill:#ffffff;fill-opacity:1;fill-rule:nonzero;stroke:none" />
    <path
       d="M 367.28566,227.30902 L 365.0776,220.23732 L 358.0022,222.44908 L 360.21026,229.52448 L 367.28566,227.30902 z"
       id="path541"
       style="opacity:0.44999701;fill:#ffffff;fill-opacity:1;fill-rule:nonzero;stroke:none" />
    <path
       d="M 356.51537,207.38473 L 351.60734,202.86875 L 347.09137,207.77678 L 351.99939,212.29275 L 356.51537,207.38473 z"
       id="path543"
       style="opacity:0.44999701;fill:#ffffff;fill-opacity:1;fill-rule:nonzero;stroke:none" />
    <path
       d="M 346.32576,200.52754 L 340.46719,199.21454 L 339.15419,205.07311 L 345.01276,206.38611 L 346.32576,200.52754 z"
       id="path545"
       style="opacity:0.44999701;fill:#ffffff;fill-opacity:1;fill-rule:nonzero;stroke:none" />
    <path
       d="M 334.29055,199.75084 L 329.13472,201.36712 L 330.7473,206.51926 L 335.90314,204.90667 L 334.29055,199.75084 z"
       id="path547"
       style="opacity:0.44999701;fill:#ffffff;fill-opacity:1;fill-rule:nonzero;stroke:none" />
    <path
       d="M 323.6941,205.14338 L 320.40235,208.72361 L 323.97889,212.01536 L 327.27063,208.43512 L 323.6941,205.14338 z"
       id="path549"
       style="opacity:0.44999701;fill:#ffffff;fill-opacity:1;fill-rule:nonzero;stroke:none" />
    <path
       d="M 519.87092,157.04694 L 506.21574,137.77359 L 486.94609,151.42878 L 500.60128,170.70213 L 519.87092,157.04694 z"
       id="path563"
       style="opacity:0.44999701;fill:#ffffff;fill-opacity:1;fill-rule:nonzero;stroke:none" />
    <path
       d="M 454.46509,96.711865 L 435.14736,87.838952 L 426.27075,107.15298 L 445.58848,116.02959 L 454.46509,96.711865 z"
       id="path565"
       style="opacity:0.44999701;fill:#ffffff;fill-opacity:1;fill-rule:nonzero;stroke:none" />
    <path
       d="M 368.28058,77.690025 L 349.22915,79.461649 L 351.00447,98.509379 L 370.0522,96.737755 L 368.28058,77.690025 z"
       id="path567"
       style="opacity:0.44999701;fill:#ffffff;fill-opacity:1;fill-rule:nonzero;stroke:none" />
    <path
       d="M 284.87741,104.54548 L 270.82647,114.49838 L 280.78307,128.54931 L 294.83401,118.59641 L 284.87741,104.54548 z"
       id="path569"
       style="opacity:0.44999701;fill:#ffffff;fill-opacity:1;fill-rule:nonzero;stroke:none" />
    <path
       d="M 246.33072,145.6072 L 239.85819,159.68773 L 253.93872,166.16026 L 260.41125,152.07603 L 246.33072,145.6072 z"
       id="path571"
       style="opacity:0.44999701;fill:#ffffff;fill-opacity:1;fill-rule:nonzero;stroke:none" />
    <path
       d="M 233.89237,200.01344 L 235.18688,213.90164 L 249.07507,212.60713 L 247.78057,198.71893 L 233.89237,200.01344 z"
       id="path573"
       style="opacity:0.44999701;fill:#ffffff;fill-opacity:1;fill-rule:nonzero;stroke:none" />
    <path
       d="M 250.43985,252.81449 L 257.69648,263.05588 L 267.93788,255.79925 L 260.68124,245.55416 L 250.43985,252.81449 z"
       id="path575"
       style="opacity:0.44999701;fill:#ffffff;fill-opacity:1;fill-rule:nonzero;stroke:none" />
    <path
       d="M 275.25738,276.69257 L 285.52096,281.40827 L 290.24036,271.14469 L 279.97678,266.42529 L 275.25738,276.69257 z"
       id="path577"
       style="opacity:0.44999701;fill:#ffffff;fill-opacity:1;fill-rule:nonzero;stroke:none" />
    <path
       d="M 308.41523,284.64823 L 318.53826,283.7088 L 317.59512,273.58206 L 307.47209,274.5252 L 308.41523,284.64823 z"
       id="path579"
       style="opacity:0.44999701;fill:#ffffff;fill-opacity:1;fill-rule:nonzero;stroke:none" />
    <path
       d="M 340.72979,274.88396 L 348.19724,269.59498 L 342.90826,262.12753 L 335.44081,267.41651 L 340.72979,274.88396 z"
       id="path581"
       style="opacity:0.44999701;fill:#ffffff;fill-opacity:1;fill-rule:nonzero;stroke:none" />
    <path
       d="M 356.89632,258.24771 L 360.33601,250.76917 L 352.85377,247.32948 L 349.41038,254.81172 L 356.89632,258.24771 z"
       id="path583"
       style="opacity:0.44999701;fill:#ffffff;fill-opacity:1;fill-rule:nonzero;stroke:none" />
    <path
       d="M 362.40352,235.98591 L 361.71558,228.60723 L 354.3369,229.29516 L 355.02114,236.67385 L 362.40352,235.98591 z"
       id="path585"
       style="opacity:0.44999701;fill:#ffffff;fill-opacity:1;fill-rule:nonzero;stroke:none" />
    <path
       d="M 356.03085,214.24931 L 352.17323,208.80868 L 346.7326,212.66631 L 350.58653,218.10693 L 356.03085,214.24931 z"
       id="path587"
       style="opacity:0.44999701;fill:#ffffff;fill-opacity:1;fill-rule:nonzero;stroke:none" />
    <path
       d="M 347.49451,205.41708 L 342.04279,202.90943 L 339.53145,208.36485 L 344.98687,210.8688 L 347.49451,205.41708 z"
       id="path589"
       style="opacity:0.44999701;fill:#ffffff;fill-opacity:1;fill-rule:nonzero;stroke:none" />
    <path
       d="M 335.88834,202.14013 L 330.51059,202.64314 L 331.0099,208.02088 L 336.38765,207.52157 L 335.88834,202.14013 z"
       id="path591"
       style="opacity:0.44999701;fill:#ffffff;fill-opacity:1;fill-rule:nonzero;stroke:none" />
    <path
       d="M 324.40053,205.20256 L 320.43564,208.01349 L 323.24657,211.98207 L 327.21145,209.17114 L 324.40053,205.20256 z"
       id="path593"
       style="opacity:0.44999701;fill:#ffffff;fill-opacity:1;fill-rule:nonzero;stroke:none" />
    <path
       d="M 526.29537,199.14427 L 516.96753,177.44465 L 495.27161,186.77249 L 504.59575,208.47211 L 526.29537,199.14427 z"
       id="path607"
       style="opacity:0.44999701;fill:#ffffff;fill-opacity:1;fill-rule:nonzero;stroke:none" />
    <path
       d="M 474.93308,126.4781 L 457.90108,113.76606 L 445.18533,130.79806 L 462.21733,143.5138 L 474.93308,126.4781 z"
       id="path609"
       style="opacity:0.44999701;fill:#ffffff;fill-opacity:1;fill-rule:nonzero;stroke:none" />
    <path
       d="M 394.62192,89.873175 L 375.62597,87.628132 L 373.38093,106.62408 L 392.37688,108.86913 L 394.62192,89.873175 z"
       id="path611"
       style="opacity:0.44999701;fill:#ffffff;fill-opacity:1;fill-rule:nonzero;stroke:none" />
    <path
       d="M 307.45359,98.712801 L 291.63473,105.51451 L 298.43644,121.33337 L 314.2553,114.53536 L 307.45359,98.712801 z"
       id="path613"
       style="opacity:0.44999701;fill:#ffffff;fill-opacity:1;fill-rule:nonzero;stroke:none" />
    <path
       d="M 261.18055,130.82025 L 251.91189,143.23641 L 264.32805,152.50507 L 273.59672,140.08521 L 261.18055,130.82025 z"
       id="path615"
       style="opacity:0.44999701;fill:#ffffff;fill-opacity:1;fill-rule:nonzero;stroke:none" />
    <path
       d="M 237.65014,181.42803 L 236.01536,195.27925 L 249.86287,196.91402 L 251.50135,183.06281 L 237.65014,181.42803 z"
       id="path617"
       style="opacity:0.44999701;fill:#ffffff;fill-opacity:1;fill-rule:nonzero;stroke:none" />
    <path
       d="M 242.79857,236.51851 L 247.75468,248.0507 L 259.28688,243.0909 L 254.33077,231.5587 L 242.79857,236.51851 z"
       id="path619"
       style="opacity:0.44999701;fill:#ffffff;fill-opacity:1;fill-rule:nonzero;stroke:none" />
    <path
       d="M 262.08301,265.05312 L 271.13715,271.81414 L 277.89448,262.75999 L 268.84033,255.99897 L 262.08301,265.05312 z"
       id="path621"
       style="opacity:0.44999701;fill:#ffffff;fill-opacity:1;fill-rule:nonzero;stroke:none" />
    <path
       d="M 292.85157,279.7624 L 302.94501,280.95705 L 304.13966,270.8599 L 294.04251,269.66156 L 292.85157,279.7624 z"
       id="path623"
       style="opacity:0.44999701;fill:#ffffff;fill-opacity:1;fill-rule:nonzero;stroke:none" />
    <path
       d="M 326.49393,276.96257 L 334.90082,273.34905 L 331.2873,264.94216 L 322.88041,268.55568 L 326.49393,276.96257 z"
       id="path625"
       style="opacity:0.44999701;fill:#ffffff;fill-opacity:1;fill-rule:nonzero;stroke:none" />
    <path
       d="M 345.78207,264.07299 L 350.70489,257.47471 L 344.1066,252.54819 L 339.17639,259.14647 L 345.78207,264.07299 z"
       id="path627"
       style="opacity:0.44999701;fill:#ffffff;fill-opacity:1;fill-rule:nonzero;stroke:none" />
    <path
       d="M 355.80894,243.44966 L 356.68181,236.08947 L 349.32161,235.2203 L 348.44875,242.58049 L 355.80894,243.44966 z"
       id="path629"
       style="opacity:0.44999701;fill:#ffffff;fill-opacity:1;fill-rule:nonzero;stroke:none" />
    <path
       d="M 354.11868,220.86238 L 351.48529,214.73752 L 345.35673,217.37091 L 347.99012,223.49578 L 354.11868,220.86238 z"
       id="path631"
       style="opacity:0.44999701;fill:#ffffff;fill-opacity:1;fill-rule:nonzero;stroke:none" />
    <path
       d="M 347.61656,210.43976 L 342.8084,206.84843 L 339.21707,211.66029 L 344.02524,215.24792 L 347.61656,210.43976 z"
       id="path633"
       style="opacity:0.44999701;fill:#ffffff;fill-opacity:1;fill-rule:nonzero;stroke:none" />
    <path
       d="M 336.95353,204.81421 L 331.58688,204.18175 L 330.95442,209.5447 L 336.31738,210.17716 L 336.95353,204.81421 z"
       id="path635"
       style="opacity:0.44999701;fill:#ffffff;fill-opacity:1;fill-rule:nonzero;stroke:none" />
    <path
       d="M 325.07737,205.40598 L 320.60947,207.32925 L 322.52904,211.79714 L 326.99693,209.87388 L 325.07737,205.40598 z"
       id="path637"
       style="opacity:0.44999701;fill:#ffffff;fill-opacity:1;fill-rule:nonzero;stroke:none" />
    <path
       d="M -8.8903695,394.49631 L -8.8903695,358.98986 L -13.454428,358.98986 L -13.454428,373.19244 L -26.136887,373.19244 L -26.136887,358.98986 L -30.700945,358.98986 L -30.700945,394.49631 L -26.136887,394.49631 L -26.136887,377.14993 L -13.454428,377.14993 L -13.454428,394.49631 L -8.8903695,394.49631 z M 19.973414,381.05564 C 19.973414,368.68016 13.733896,367.10456 8.9664152,367.10456 C 4.1952362,367.10456 -2.0405838,368.98344 -2.0405838,381.05564 C -2.0405838,393.37933 4.1471545,395.00301 8.9664152,395.00301 C 13.781977,395.00301 19.973414,393.58275 19.973414,381.05564 M 15.405658,381.05564 C 15.405658,390.5906 11.248444,391.45237 8.9664152,391.45237 C 6.6806876,391.45237 2.5234742,390.74224 2.5234742,381.05564 C 2.5234742,371.31725 6.173981,370.60712 8.9664152,370.60712 C 11.755151,370.60712 15.405658,371.16561 15.405658,381.05564 M 42.035494,393.9896 L 42.035494,389.88047 C 42.035494,389.88047 39.043336,390.94566 36.609665,390.94566 C 33.462166,390.94566 29.86344,389.78061 29.86344,381.20728 C 29.86344,371.82396 33.717369,371.01027 37.012811,371.01027 C 39.498262,371.01027 42.035494,371.9756 42.035494,371.9756 L 42.035494,368.06989 C 42.035494,368.06989 39.753465,367.10456 36.861169,367.10456 C 32.855598,367.10456 25.295683,368.42496 25.295683,381.20728 C 25.295683,393.88604 32.348891,395.00301 36.609665,395.00301 C 39.3984,395.00301 42.035494,393.9896 42.035494,393.9896 M 67.648219,394.49631 L 67.648219,375.1194 C 67.648219,368.93166 64.404557,367.10456 59.94036,367.10456 C 55.324522,367.10456 51.418813,370.85863 51.418813,370.85863 L 51.418813,357.97644 L 46.854755,357.97644 L 46.854755,394.49631 L 51.418813,394.49631 L 51.418813,374.00613 C 51.418813,374.00613 55.324522,371.26547 58.771606,371.26547 C 61.208976,371.26547 63.08416,371.52067 63.08416,374.96776 L 63.08416,394.49631 L 67.648219,394.49631 z M 89.662218,387.14351 C 89.662218,382.22069 86.821702,380.44537 83.981186,379.33209 L 81.344093,378.2669 C 79.923835,377.70841 78.048651,377.14993 78.048651,374.36119 C 78.048651,371.62054 80.179037,370.91041 82.712571,370.91041 C 85.505005,370.91041 88.648805,371.9756 88.648805,371.9756 L 88.648805,368.16975 C 88.648805,368.16975 86.111573,367.10456 82.560928,367.10456 C 77.286741,367.10456 73.736097,369.79343 73.736097,374.61269 C 73.736097,379.33209 77.186879,381.00386 79.010284,381.76576 L 81.647377,382.83096 C 83.777764,383.69273 85.301582,384.25122 85.301582,387.14351 C 85.301582,390.49073 82.712571,391.0973 80.075477,391.0973 C 77.94509,391.0973 74.142941,389.88047 74.142941,389.88047 L 74.142941,393.93782 C 74.142941,393.93782 77.234961,395.00301 80.075477,395.00301 C 84.794876,395.00301 89.662218,393.78618 89.662218,387.14351 M 110.95869,393.9896 L 110.95869,389.88047 C 110.95869,389.88047 107.96653,390.94566 105.53286,390.94566 C 102.38906,390.94566 98.786636,389.78061 98.786636,381.20728 C 98.786636,371.82396 102.64056,371.01027 105.93971,371.01027 C 108.42516,371.01027 110.95869,371.9756 110.95869,371.9756 L 110.95869,368.06989 C 110.95869,368.06989 108.67666,367.10456 105.78436,367.10456 C 101.77879,367.10456 94.222578,368.42496 94.222578,381.20728 C 94.222578,393.88604 101.27209,395.00301 105.53286,395.00301 C 108.3216,395.00301 110.95869,393.9896 110.95869,393.9896 M 136.57511,394.49631 L 136.57511,375.1194 C 136.57511,368.93166 133.32775,367.10456 128.86356,367.10456 C 124.24772,367.10456 120.34201,370.85863 120.34201,370.85863 L 120.34201,357.97644 L 115.77795,357.97644 L 115.77795,394.49631 L 120.34201,394.49631 L 120.34201,374.00613 C 120.34201,374.00613 124.24772,371.26547 127.6985,371.26547 C 130.13217,371.26547 132.00736,371.52067 132.00736,374.96776 L 132.00736,394.49631 L 136.57511,394.49631 z M 164.97287,394.49631 L 164.97287,367.61497 L 160.40882,367.61497 L 160.40882,388.05336 C 160.40882,388.05336 156.85817,390.89388 153.55903,390.89388 C 150.51509,390.89388 149.75688,389.32198 149.75688,386.1264 L 149.75688,367.61497 L 145.18912,367.61497 L 145.18912,387.14351 C 145.18912,393.07605 148.23306,395.00301 152.54562,395.00301 C 157.06159,395.00301 160.7121,390.99744 160.7121,390.99744 L 161.27059,394.49631 L 164.97287,394.49631 z M 178.15834,357.97644 L 173.59428,357.97644 L 173.59428,394.49631 L 178.15834,394.49631 L 178.15834,357.97644 z M 205.04338,381.05564 C 205.45022,369.18687 200.12426,367.10456 195.40486,367.10456 C 190.28231,367.10456 185.25963,369.74535 185.25963,381.05564 C 185.25963,393.93782 191.39929,395.00301 196.67347,395.00301 C 200.12426,395.00301 203.62312,393.7344 203.62312,393.7344 L 203.62312,389.67705 C 203.62312,389.67705 199.26249,390.99744 196.67347,390.99744 C 194.08816,390.99744 189.97903,391.0973 189.77561,382.47589 L 204.9916,382.47589 L 205.04338,381.05564 z M 200.5274,379.33209 L 189.82739,379.33209 C 190.03081,372.17902 192.10942,370.55534 195.40486,370.55534 C 198.14551,370.55534 200.5274,371.7204 200.5274,379.33209 M 247.39592,394.49631 L 236.38892,375.01954 L 246.88921,358.98986 L 241.35982,358.98986 L 231.67322,375.22296 L 242.06995,395.00301 L 247.39592,394.49631 z M 230.1494,358.98986 L 225.58534,358.98986 L 225.58534,394.49631 L 230.1494,394.49631 L 230.1494,358.98986 z M 269.7132,381.05564 C 270.12004,369.18687 264.79408,367.10456 260.07838,367.10456 C 254.95213,367.10456 249.93315,369.74535 249.93315,381.05564 C 249.93315,393.93782 256.06911,395.00301 261.34329,395.00301 C 264.79408,395.00301 268.29294,393.7344 268.29294,393.7344 L 268.29294,389.67705 C 268.29294,389.67705 263.9323,390.99744 261.34329,390.99744 C 258.75798,390.99744 254.64885,391.0973 254.44542,382.47589 L 269.66512,382.47589 L 269.7132,381.05564 z M 265.20092,379.33209 L 254.49721,379.33209 C 254.70063,372.17902 256.77923,370.55534 260.07838,370.55534 C 262.81533,370.55534 265.20092,371.7204 265.20092,379.33209 M 310.53822,394.49631 L 310.53822,375.1194 C 310.53822,368.93166 307.84934,367.10456 303.58857,367.10456 C 299.12807,367.10456 295.32222,371.11383 295.32222,371.11383 C 294.81552,368.47674 292.02678,367.10456 288.87928,367.10456 C 284.67029,367.10456 280.968,370.85863 280.968,370.85863 L 279.95459,367.61497 L 276.55559,367.61497 L 276.55559,394.49631 L 281.11964,394.49631 L 281.11964,373.85079 C 281.11964,373.85079 284.367,371.21369 287.71423,371.21369 C 289.74105,371.21369 291.26487,371.67232 291.26487,374.91598 L 291.26487,394.49631 L 295.82893,394.49631 L 295.82893,373.85079 C 295.82893,373.85079 299.48314,371.21369 302.42351,371.21369 C 304.45404,371.21369 305.97416,371.67232 305.97416,374.91598 L 305.97416,394.49631 L 310.53822,394.49631 z M 339.95679,380.90399 C 339.95679,368.62838 334.12411,367.10456 330.32197,367.10456 C 326.77132,367.10456 324.68902,368.87988 323.32054,370.55534 L 322.66219,367.61497 L 319.16332,367.61497 L 319.16332,404.13483 L 323.72738,404.13483 L 323.72738,393.53467 C 324.53737,394.04138 326.5679,395.00301 329.05335,395.00301 C 332.04551,395.00301 339.95679,393.83796 339.95679,380.90399 M 335.39273,380.90399 C 335.39273,389.78061 331.79031,391.35251 328.69829,391.35251 C 326.36448,391.35251 324.43751,390.5906 323.72738,390.33539 L 323.72738,373.24422 C 324.7408,372.27889 327.02282,370.85863 329.81526,370.85863 C 332.80742,370.85863 335.39273,372.38245 335.39273,380.90399 M 359.48534,394.08946 L 359.48534,390.23553 C 359.48534,390.23553 356.59304,391.14908 354.92128,391.14908 C 353.19773,391.14908 352.38405,390.79402 352.38405,388.40843 L 352.38405,371.11383 L 357.96522,371.11383 L 358.47192,367.61497 L 352.38405,367.61497 L 352.38405,359.49656 L 348.02341,361.52709 L 347.81999,367.61497 L 343.25593,367.61497 L 343.25593,371.11383 L 347.81999,371.11383 L 347.81999,388.25679 C 347.81999,393.53467 350.05024,395.00301 353.90786,395.00301 C 356.79646,395.00301 359.48534,394.08946 359.48534,394.08946 M 381.55111,381.05564 C 381.95426,369.18687 376.62829,367.10456 371.91259,367.10456 C 366.79005,367.10456 361.76736,369.74535 361.76736,381.05564 C 361.76736,393.93782 367.90332,395.00301 373.18121,395.00301 C 376.62829,395.00301 380.13086,393.7344 380.13086,393.7344 L 380.13086,389.67705 C 380.13086,389.67705 375.76652,390.99744 373.18121,390.99744 C 370.5922,390.99744 366.48306,391.0973 366.28334,382.47589 L 381.49933,382.47589 L 381.55111,381.05564 z M 377.03514,379.33209 L 366.33142,379.33209 C 366.53484,372.17902 368.61345,370.55534 371.91259,370.55534 C 374.64955,370.55534 377.03514,371.7204 377.03514,379.33209 M 409.18697,394.49631 L 409.18697,375.1194 C 409.18697,368.93166 405.93961,367.10456 401.47541,367.10456 C 396.75971,367.10456 392.80222,370.91041 392.80222,370.91041 L 391.78881,367.61497 L 388.3898,367.61497 L 388.3898,394.49631 L 392.95386,394.49631 L 392.95386,373.90257 C 392.95386,373.90257 396.60807,371.21369 400.31036,371.21369 C 402.33718,371.21369 404.62291,371.31725 404.62291,374.91598 L 404.62291,394.49631 L 409.18697,394.49631 z"
       id="path639"
       style="fill:#ffffff;fill-opacity:1;fill-rule:nonzero;stroke:none" />
    <path
       d="M 84.151321,420.73039 L 84.151321,408.19588 L 81.939566,408.19588 L 81.939566,421.09655 C 81.939566,423.03831 80.907659,423.75214 79.161926,423.75214 C 77.268248,423.75214 76.384286,423.01612 76.384286,421.09655 L 76.384286,408.19588 L 74.17253,408.19588 L 74.17253,420.73039 C 74.17253,424.19597 75.670458,425.64582 79.161926,425.64582 C 82.50545,425.64582 84.151321,424.09611 84.151321,420.73039 M 99.633612,425.39801 L 99.633612,416.01099 C 99.633612,413.01144 98.058014,412.12748 95.898038,412.12748 C 93.61231,412.12748 91.696442,413.97307 91.696442,413.97307 L 91.204529,412.37528 L 89.558658,412.37528 L 89.558658,425.39801 L 91.770413,425.39801 L 91.770413,415.42292 C 91.770413,415.42292 93.538339,414.11732 95.332154,414.11732 C 96.315979,414.11732 97.421857,414.1691 97.421857,415.91113 L 97.421857,425.39801 L 99.633612,425.39801 z M 107.59297,408.9319 C 107.59297,408.12191 106.95682,407.45986 106.14313,407.45986 C 105.33314,407.45986 104.69328,408.12191 104.69328,408.9319 C 104.69328,409.74559 105.33314,410.40763 106.14313,410.40763 C 106.95682,410.40763 107.59297,409.74559 107.59297,408.9319 M 107.24901,412.37528 L 105.03725,412.37528 L 105.03725,425.40171 L 107.24901,425.40171 L 107.24901,412.37528 z M 121.86953,412.37528 L 119.33969,412.37528 L 117.05396,420.7045 C 116.58424,422.40216 116.21808,424.34022 116.21808,424.34022 C 116.21808,424.34022 115.84822,422.37627 115.3822,420.7045 L 113.09647,412.37528 L 110.56664,412.37528 L 114.89029,425.39801 L 117.51999,425.39801 L 121.86953,412.37528 z M 133.78638,418.8848 C 133.9824,413.13719 131.40079,412.12748 129.11506,412.12748 C 126.63331,412.12748 124.19964,413.40719 124.19964,418.8848 C 124.19964,425.12801 127.1733,425.64582 129.72903,425.64582 C 131.40079,425.64582 133.09844,425.03185 133.09844,425.03185 L 133.09844,423.0642 C 133.09844,423.0642 130.98285,423.70406 129.72903,423.70406 C 128.4752,423.70406 126.48536,423.75214 126.3892,419.57274 L 133.76049,419.57274 L 133.78638,418.8848 z M 131.59681,418.04892 L 126.41139,418.04892 C 126.51125,414.58704 127.51727,413.79924 129.11506,413.79924 C 130.44285,413.79924 131.59681,414.36512 131.59681,418.04892 M 144.17571,414.6832 L 144.17571,412.27542 C 144.17571,412.27542 143.53955,412.12748 143.09572,412.12748 C 141.10588,412.12748 140.34397,414.09513 140.34397,414.09513 L 140.0222,412.37528 L 138.32824,412.37528 L 138.32824,425.39801 L 140.54,425.39801 L 140.54,415.471 C 140.54,415.471 141.34999,414.43909 142.57792,414.43909 C 143.43969,414.43909 144.17571,414.6832 144.17571,414.6832 M 153.98067,421.83627 C 153.98067,419.45068 152.60479,418.59261 151.22892,418.04892 L 149.95291,417.53481 C 149.26497,417.26482 148.35512,416.99482 148.35512,415.64114 C 148.35512,414.31704 149.38702,413.97307 150.61495,413.97307 C 151.96494,413.97307 153.48876,414.48718 153.48876,414.48718 L 153.48876,412.64528 C 153.48876,412.64528 152.26083,412.12748 150.54098,412.12748 C 147.98526,412.12748 146.26541,413.42938 146.26541,415.76689 C 146.26541,418.04892 147.93718,418.86261 148.82114,419.22877 L 150.09715,419.74657 C 151.12906,420.16451 151.86877,420.43451 151.86877,421.83627 C 151.86877,423.45625 150.61495,423.75214 149.33524,423.75214 C 148.30334,423.75214 146.46144,423.16406 146.46144,423.16406 L 146.46144,425.12801 C 146.46144,425.12801 147.95937,425.64582 149.33524,425.64582 C 151.62097,425.64582 153.98067,425.05404 153.98067,421.83627 M 160.83785,408.9319 C 160.83785,408.12191 160.198,407.45986 159.388,407.45986 C 158.57801,407.45986 157.93816,408.12191 157.93816,408.9319 C 157.93816,409.74559 158.57801,410.40763 159.388,410.40763 C 160.198,410.40763 160.83785,409.74559 160.83785,408.9319 M 160.49388,412.37528 L 158.28213,412.37528 L 158.28213,425.40171 L 160.49388,425.40171 L 160.49388,412.37528 z M 171.92252,425.20199 L 171.92252,423.3342 C 171.92252,423.3342 170.52076,423.77803 169.71077,423.77803 C 168.87488,423.77803 168.47914,423.6042 168.47914,422.45024 L 168.47914,414.06924 L 171.1828,414.06924 L 171.43061,412.37528 L 168.47914,412.37528 L 168.47914,408.44368 L 166.36724,409.42381 L 166.26738,412.37528 L 164.05562,412.37528 L 164.05562,414.06924 L 166.26738,414.06924 L 166.26738,422.37627 C 166.26738,424.93199 167.35107,425.64582 169.21885,425.64582 C 170.61692,425.64582 171.92252,425.20199 171.92252,425.20199 M 183.95773,412.37528 L 181.45378,412.37528 L 178.89806,422.91626 L 175.67659,412.37528 L 173.0247,412.37528 L 177.88834,425.37582 L 177.7404,426.03787 C 177.30027,428.02771 176.63452,428.47154 175.85042,428.47154 C 175.18468,428.47154 173.66086,428.12757 173.66086,428.12757 L 173.66086,429.94358 C 173.66086,429.94358 174.84071,430.31344 175.92439,430.31344 C 177.32246,430.31344 178.7982,429.94358 179.70805,426.87375 L 183.95773,412.37528 z M 204.57736,418.8848 C 204.57736,412.88939 201.55561,412.12748 199.24399,412.12748 C 196.93238,412.12748 193.91063,413.03733 193.91063,418.8848 C 193.91063,424.85802 196.91018,425.64582 199.24399,425.64582 C 201.5778,425.64582 204.57736,424.95788 204.57736,418.8848 M 202.3656,418.8848 C 202.3656,423.50803 200.34987,423.92228 199.24399,423.92228 C 198.13812,423.92228 196.12238,423.57831 196.12238,418.8848 C 196.12238,414.1691 197.89401,413.82513 199.24399,413.82513 C 200.59398,413.82513 202.3656,414.09513 202.3656,418.8848 M 215.75819,409.7197 L 215.75819,407.95177 C 215.75819,407.95177 214.60423,407.45986 213.27644,407.45986 C 211.06468,407.45986 209.36703,408.41779 209.36703,411.16954 L 209.36703,412.37528 L 207.15527,412.37528 L 207.15527,414.06924 L 209.36703,414.06924 L 209.36703,425.39801 L 211.57879,425.39801 L 211.57879,414.06924 L 214.28245,414.06924 L 214.53026,412.37528 L 211.57879,412.37528 L 211.57879,411.04749 C 211.57879,409.84175 212.19645,409.27587 213.35041,409.27587 C 214.55245,409.27587 215.75819,409.7197 215.75819,409.7197 M 235.41619,425.39801 L 230.6746,408.19588 L 227.87107,408.19588 L 223.12948,425.39801 L 225.53726,425.39801 L 226.44711,421.56627 L 232.09855,421.56627 L 233.00841,425.39801 L 235.41619,425.39801 z M 231.68061,419.64671 L 226.86505,419.64671 L 228.38887,413.40719 C 228.80681,411.73543 229.27283,409.59764 229.27283,409.59764 C 229.27283,409.59764 229.76474,411.76132 230.1568,413.40719 L 231.68061,419.64671 z M 249.05658,418.81083 C 249.05658,412.86719 246.23086,412.12748 244.38526,412.12748 C 242.66542,412.12748 241.6594,412.98925 240.99366,413.79924 L 240.67558,412.37528 L 238.98163,412.37528 L 238.98163,430.06933 L 241.19338,430.06933 L 241.19338,424.93199 C 241.58543,425.1761 242.56926,425.64582 243.7713,425.64582 C 245.22115,425.64582 249.05658,425.07993 249.05658,418.81083 M 246.84483,418.81083 C 246.84483,423.11228 245.09909,423.87419 243.60116,423.87419 C 242.4694,423.87419 241.53735,423.50803 241.19338,423.38228 L 241.19338,415.10114 C 241.6853,414.63512 242.79117,413.94718 244.14116,413.94718 C 245.591,413.94718 246.84483,414.6832 246.84483,418.81083 M 263.92491,418.81083 C 263.92491,412.86719 261.09919,412.12748 259.25359,412.12748 C 257.53375,412.12748 256.52773,412.98925 255.86198,413.79924 L 255.54391,412.37528 L 253.84625,412.37528 L 253.84625,430.06933 L 256.05801,430.06933 L 256.05801,424.93199 C 256.45376,425.1761 257.43758,425.64582 258.63962,425.64582 C 260.08947,425.64582 263.92491,425.07993 263.92491,418.81083 M 261.71315,418.81083 C 261.71315,423.11228 259.96742,423.87419 258.46949,423.87419 C 257.33772,423.87419 256.40198,423.50803 256.05801,423.38228 L 256.05801,415.10114 C 256.54992,414.63512 257.6558,413.94718 259.00948,413.94718 C 260.45933,413.94718 261.71315,414.6832 261.71315,418.81083 M 270.80428,407.70396 L 268.59253,407.70396 L 268.59253,425.39801 L 270.80428,425.39801 L 270.80428,407.70396 z M 278.76734,408.9319 C 278.76734,408.12191 278.12749,407.45986 277.3175,407.45986 C 276.50381,407.45986 275.86765,408.12191 275.86765,408.9319 C 275.86765,409.74559 276.50381,410.40763 277.3175,410.40763 C 278.12749,410.40763 278.76734,409.74559 278.76734,408.9319 M 278.42337,412.37528 L 276.21162,412.37528 L 276.21162,425.40171 L 278.42337,425.40171 L 278.42337,412.37528 z M 292.67403,418.8848 C 292.87006,413.13719 290.28845,412.12748 288.00272,412.12748 C 285.52096,412.12748 283.08729,413.40719 283.08729,418.8848 C 283.08729,425.12801 286.06096,425.64582 288.61668,425.64582 C 290.28845,425.64582 291.9861,425.03185 291.9861,425.03185 L 291.9861,423.0642 C 291.9861,423.0642 289.8705,423.70406 288.61668,423.70406 C 287.36286,423.70406 285.37302,423.75214 285.27686,419.57274 L 292.64814,419.57274 L 292.67403,418.8848 z M 290.48447,418.04892 L 285.29905,418.04892 C 285.39891,414.58704 286.40493,413.79924 288.00272,413.79924 C 289.33051,413.79924 290.48447,414.36512 290.48447,418.04892 M 306.9247,425.39801 L 306.9247,407.70396 L 304.71294,407.70396 L 304.71294,413.33322 C 304.42075,413.01144 303.5109,412.12748 301.88722,412.12748 C 300.24135,412.12748 296.60563,412.86719 296.60563,418.8848 C 296.60563,424.78405 299.52752,425.64582 301.39531,425.64582 C 303.36295,425.64582 304.5428,424.53994 304.98294,423.99625 L 305.25663,425.39801 L 306.9247,425.39801 z M 304.71294,422.62037 C 304.295,422.96434 303.16693,423.82611 301.88722,423.82611 C 300.51134,423.82611 298.81739,423.45625 298.81739,418.8848 C 298.81739,414.58704 300.6334,413.97307 302.13502,413.97307 C 303.38885,413.97307 304.36897,414.66101 304.71294,414.93101 L 304.71294,422.62037 z M 327.32241,420.77847 C 327.32241,418.27083 325.7727,417.0429 324.22669,415.96291 L 322.85082,415.00498 C 321.76713,414.24307 320.88317,413.52924 320.88317,412.24953 C 320.88317,410.45571 322.01494,409.84175 323.70889,409.84175 C 325.11065,409.84175 326.66036,410.45571 326.66036,410.45571 L 326.66036,408.51396 C 326.66036,408.51396 325.45462,407.95177 323.70889,407.95177 C 321.44905,407.95177 318.71949,408.98368 318.71949,412.44925 C 318.71949,414.46129 319.95112,415.741 321.34919,416.69893 L 323.12081,417.90467 C 324.24888,418.66658 325.11065,419.42849 325.11065,420.95231 C 325.11065,423.18626 323.73478,423.70406 322.08891,423.70406 C 320.8092,423.70406 318.89333,423.11228 318.89333,423.11228 L 318.89333,425.12801 C 318.89333,425.12801 320.49112,425.64582 322.13699,425.64582 C 324.81477,425.64582 327.32241,424.9061 327.32241,420.77847 M 338.99516,425.1539 L 338.99516,423.16406 C 338.99516,423.16406 337.54531,423.67817 336.36546,423.67817 C 334.84164,423.67817 333.09961,423.11228 333.09961,418.95877 C 333.09961,414.4132 334.96369,414.02115 336.56148,414.02115 C 337.76722,414.02115 338.99516,414.48718 338.99516,414.48718 L 338.99516,412.5935 C 338.99516,412.5935 337.88928,412.12748 336.48751,412.12748 C 334.54575,412.12748 330.88415,412.76733 330.88415,418.95877 C 330.88415,425.10212 334.30165,425.64582 336.36546,425.64582 C 337.71914,425.64582 338.99516,425.1539 338.99516,425.1539 M 345.36043,408.9319 C 345.36043,408.12191 344.72057,407.45986 343.91058,407.45986 C 343.10059,407.45986 342.46073,408.12191 342.46073,408.9319 C 342.46073,409.74559 343.10059,410.40763 343.91058,410.40763 C 344.72057,410.40763 345.36043,409.74559 345.36043,408.9319 M 345.01646,412.37528 L 342.8047,412.37528 L 342.8047,425.40171 L 345.01646,425.40171 L 345.01646,412.37528 z M 359.26712,418.8848 C 359.46314,413.13719 356.88153,412.12748 354.5958,412.12748 C 352.11405,412.12748 349.68408,413.40719 349.68408,418.8848 C 349.68408,425.12801 352.65404,425.64582 355.21347,425.64582 C 356.88153,425.64582 358.57918,425.03185 358.57918,425.03185 L 358.57918,423.0642 C 358.57918,423.0642 356.46359,423.70406 355.21347,423.70406 C 353.95964,423.70406 351.9661,423.75214 351.86994,419.57274 L 359.24123,419.57274 L 359.26712,418.8848 z M 357.07755,418.04892 L 351.89583,418.04892 C 351.992,414.58704 353.00171,413.79924 354.5958,413.79924 C 355.92359,413.79924 357.07755,414.36512 357.07755,418.04892 M 373.88394,425.39801 L 373.88394,416.01099 C 373.88394,413.01144 372.31204,412.12748 370.14837,412.12748 C 367.86264,412.12748 365.94677,413.97307 365.94677,413.97307 L 365.45486,412.37528 L 363.80898,412.37528 L 363.80898,425.39801 L 366.02074,425.39801 L 366.02074,415.42292 C 366.02074,415.42292 367.79236,414.11732 369.58618,414.11732 C 370.56631,414.11732 371.67218,414.1691 371.67218,415.91113 L 371.67218,425.39801 L 373.88394,425.39801 z M 386.66256,425.1539 L 386.66256,423.16406 C 386.66256,423.16406 385.21272,423.67817 384.03287,423.67817 C 382.51275,423.67817 380.76701,423.11228 380.76701,418.95877 C 380.76701,414.4132 382.6348,414.02115 384.23259,414.02115 C 385.43463,414.02115 386.66256,414.48718 386.66256,414.48718 L 386.66256,412.5935 C 386.66256,412.5935 385.55668,412.12748 384.15862,412.12748 C 382.21686,412.12748 378.55526,412.76733 378.55526,418.95877 C 378.55526,425.10212 381.96905,425.64582 384.03287,425.64582 C 385.38655,425.64582 386.66256,425.1539 386.66256,425.1539 M 399.07503,418.8848 C 399.27105,413.13719 396.68944,412.12748 394.40371,412.12748 C 391.92196,412.12748 389.48828,413.40719 389.48828,418.8848 C 389.48828,425.12801 392.46195,425.64582 395.01767,425.64582 C 396.68944,425.64582 398.38709,425.03185 398.38709,425.03185 L 398.38709,423.0642 C 398.38709,423.0642 396.2715,423.70406 395.01767,423.70406 C 393.76755,423.70406 391.77401,423.75214 391.67785,419.57274 L 399.04914,419.57274 L 399.07503,418.8848 z M 396.88546,418.04892 L 391.70004,418.04892 C 391.7999,414.58704 392.80592,413.79924 394.40371,413.79924 C 395.7315,413.79924 396.88546,414.36512 396.88546,418.04892 M 410.10422,421.83627 C 410.10422,419.45068 408.72834,418.59261 407.35247,418.04892 L 406.07646,417.53481 C 405.38852,417.26482 404.47867,416.99482 404.47867,415.64114 C 404.47867,414.31704 405.51057,413.97307 406.7385,413.97307 C 408.08849,413.97307 409.61231,414.48718 409.61231,414.48718 L 409.61231,412.64528 C 409.61231,412.64528 408.38438,412.12748 406.66453,412.12748 C 404.10881,412.12748 402.38896,413.42938 402.38896,415.76689 C 402.38896,418.04892 404.06073,418.86261 404.94469,419.22877 L 406.2207,419.74657 C 407.25631,420.16451 407.99232,420.43451 407.99232,421.83627 C 407.99232,423.45625 406.7385,423.75214 405.45879,423.75214 C 404.42689,423.75214 402.58499,423.16406 402.58499,423.16406 L 402.58499,425.12801 C 402.58499,425.12801 404.08292,425.64582 405.45879,425.64582 C 407.74452,425.64582 410.10422,425.05404 410.10422,421.83627"
       id="path641"
       style="fill:#ffffff;fill-opacity:1;fill-rule:nonzero;stroke:none" />
  </g>
</svg>
